Coordinates
version=1
nRows=13
nColumns=40
inDegrees=yes

Units are S.I. units (second, meters, Newtons, ...)
Angles are in degrees.

endheader
time	pelvis_tilt	pelvis_list	pelvis_rotation	pelvis_tx	pelvis_ty	pelvis_tz	hip_flexion_r	hip_adduction_r	hip_rotation_r	knee_angle_r	knee_angle_r_beta	ankle_angle_r	subtalar_angle_r	mtp_angle_r	hip_flexion_l	hip_adduction_l	hip_rotation_l	knee_angle_l	knee_angle_l_beta	ankle_angle_l	subtalar_angle_l	mtp_angle_l	lumbar_extension	lumbar_bending	lumbar_rotation	arm_flex_r	arm_add_r	arm_rot_r	elbow_flex_r	pro_sup_r	wrist_flex_r	wrist_dev_r	arm_flex_l	arm_add_l	arm_rot_l	elbow_flex_l	pro_sup_l	wrist_flex_l	wrist_dev_l
     28.62000000	     -2.64847724	     -3.16450484	      1.38271630	      0.85758547	      0.93431203	      0.45253191	     27.52152601	     -6.05078021	     -6.00241411	     70.48757021	     70.48757021	     -1.17687486	    -15.90372679	      0.59383159	     13.14843419	     -2.09189345	     -7.54018753	     20.27024702	     20.27024702	     12.61221045	     -9.16832228	      0.59731776	     -7.89829296	      4.71488682	      3.63069984	      6.85793709	    -12.21905403	     -3.69858208	     25.46751124	     46.49046386	      0.00000000	      0.00000000	     14.05631072	    -10.79701852	     -2.97256010	     38.63277075	     45.93494127	      0.00000000	      0.00000000
     28.63207143	     -2.58953881	     -3.16143622	      1.26200318	      0.85708979	      0.93533158	      0.45183708	     28.49829016	     -6.06125792	     -6.24671184	     69.62636140	     69.62636140	     -0.85548112	    -15.98749052	      0.52233743	     12.06757509	     -2.05167488	     -7.90127598	     19.36263823	     19.36263823	     12.82734303	     -8.47386412	      0.54431606	     -7.96998213	      4.78318629	      3.51294876	      4.88078011	    -12.01575886	     -3.57165387	     24.59010242	     46.50088412	      0.00000000	      0.00000000	     15.29390223	    -11.10000789	     -3.16615193	     39.71666288	     45.98057684	      0.00000000	      0.00000000
     28.64414286	     -2.50277452	     -3.16267796	      1.14447066	      0.85657917	      0.93625887	      0.45119540	     29.35386279	     -6.06365912	     -6.51534643	     68.61689596	     68.61689596	     -0.54188572	    -16.05156296	      0.50037711	     11.00483057	     -2.02272420	     -8.28373984	     18.53935625	     18.53935625	     13.04037236	     -7.76216596	      0.39637545	     -8.11849543	      4.82528981	      3.53402657	      2.87720706	    -11.83864669	     -3.40387403	     23.74612038	     46.50695972	      0.00000000	      0.00000000	     16.52456252	    -11.41039322	     -3.39264478	     41.08752133	     46.03278726	      0.00000000	      0.00000000
     28.65621429	     -2.46369417	     -3.18742017	      1.06430751	      0.85607076	      0.93704656	      0.45056511	     30.14336811	     -6.04249868	     -6.82985780	     67.40027279	     67.40027279	     -0.26690453	    -16.14430822	      0.64006174	      9.99246186	     -1.99568859	     -8.58121728	     17.67433593	     17.67433593	     13.23464822	     -7.09142303	      0.27927498	     -8.19636944	      4.92343167	      3.42595074	      0.94971830	    -11.64597038	     -3.24852109	     23.00807369	     46.50995237	      0.00000000	      0.00000000	     17.65692249	    -11.70499434	     -3.60336192	     42.40726517	     46.08136295	      0.00000000	      0.00000000
     28.66828571	     -2.42386246	     -3.22563578	      0.98821135	      0.85550172	      0.93768134	      0.45000838	     30.82497759	     -6.01278585	     -7.17393432	     65.95391855	     65.95391855	      0.01124709	    -16.27452424	      0.90084280	      9.01559135	     -1.98119878	     -8.84865846	     16.85868262	     16.85868262	     13.43999856	     -6.47474593	      0.14898899	     -8.26814768	      5.01103905	      3.29568321	     -0.89593271	    -11.47811475	     -3.11823377	     22.36385258	     46.51161133	      0.00000000	      0.00000000	     18.74198708	    -11.99659508	     -3.81695513	     43.72363502	     46.12922723	      0.00000000	      0.00000000
     28.68035714	     -2.38937670	     -3.25651288	      0.94078045	      0.85483659	      0.93807779	      0.44954070	     31.41998445	     -5.97280371	     -7.49767137	     64.30054319	     64.30054319	      0.47824882	    -16.37679195	      1.63892156	      8.11182759	     -1.99503898	     -9.23723954	     16.13266598	     16.13266598	     13.50376875	     -5.70176733	     -0.52546448	     -8.43747061	      5.10750500	      3.00428429	     -2.81734637	    -11.37913593	     -2.73820581	     22.39248407	     46.47674293	      0.00000000	      0.00000000	     19.25328341	    -12.51286309	     -4.20485807	     46.43003476	     46.21647272	      0.00000000	      0.00000000
     28.69242857	     -2.36917483	     -3.25853059	      0.88677526	      0.85411613	      0.93836837	      0.44915259	     31.87628242	     -5.95440684	     -7.82304901	     62.29039903	     62.29039903	      0.79400352	    -16.59132957	      2.00376732	      7.20218281	     -1.92413990	     -9.40175888	     15.34718619	     15.34718619	     13.69296609	     -5.24631809	     -0.60376747	     -8.53374802	      5.15211935	      2.92316106	     -4.54045360	    -11.27908110	     -2.61535478	     21.85359714	     46.47783951	      0.00000000	      0.00000000	     20.34530467	    -12.77685761	     -4.42932798	     47.57894786	     46.26503362	      0.00000000	      0.00000000
     28.70450000	     -2.41358337	     -3.30088076	      0.86401166	      0.85329907	      0.93840908	      0.44884346	     32.25550041	     -5.90275826	     -8.21099947	     59.95182496	     59.95182496	      1.11548663	    -16.77809447	      2.38173655	      6.43028097	     -1.90920944	     -9.52782734	     14.66283070	     14.66283070	     13.89741976	     -4.78653331	     -0.76557814	     -8.56340725	      5.25069654	      2.75312268	     -6.18737132	    -11.19121885	     -2.57751986	     21.49756723	     46.47749488	      0.00000000	      0.00000000	     21.29742637	    -13.03597967	     -4.65312592	     48.79559566	     46.31129905	      0.00000000	      0.00000000
     28.71657143	     -2.42752668	     -3.24351603	      0.79708499	      0.85248356	      0.93821388	      0.44872141	     32.50046540	     -5.90813710	     -8.52258299	     57.36396364	     57.36396364	      1.53753750	    -16.92227936	      2.75875551	      5.61532458	     -1.81635853	     -9.83895634	     13.97274428	     13.97274428	     14.03030018	     -4.17125188	     -1.27835701	     -8.69385998	      5.17490122	      2.73954542	     -8.01284992	    -11.12209281	     -2.63626815	     21.71304303	     46.46365881	      0.00000000	      0.00000000	     22.00351511	    -13.30656603	     -5.01492550	     50.98967139	     46.38374518	      0.00000000	      0.00000000
     28.72864286	     -2.51725808	     -3.26897574	      0.73461053	      0.85159245	      0.93781676	      0.44871069	     32.63832192	     -5.79996485	     -8.91229309	     54.37724337	     54.37724337	      1.88101791	    -16.99387934	      2.95485374	      4.93596735	     -1.81033699	    -10.07034924	     13.35586943	     13.35586943	     14.08955062	     -3.71504297	     -1.98572321	     -8.75790574	      5.24356323	      2.48466817	     -9.72745294	    -11.14758129	     -2.81220905	     22.32483227	     46.44894261	      0.00000000	      0.00000000	     22.37043217	    -13.69070826	     -5.41369603	     53.34351415	     46.46587801	      0.00000000	      0.00000000
     28.74071429	     -2.66307250	     -3.27971223	      0.69629321	      0.85065486	      0.93718189	      0.44881484	     32.68880333	     -5.67662277	     -9.34045258	     51.10482189	     51.10482189	      2.28590966	    -16.92496135	      3.25907138	      4.39742373	     -1.78764920	    -10.14427619	     12.89646199	     12.89646199	     14.35204473	     -3.49100970	     -2.18478641	     -8.71034446	      5.27527381	      2.24526582	    -11.03154492	    -11.12578189	     -2.85209783	     22.07008716	     46.45312029	      0.00000000	      0.00000000	     23.18115555	    -13.99801210	     -5.60061455	     54.24877575	     46.50268198	      0.00000000	      0.00000000
     28.75278571	     -2.69265760	     -3.23862965	      0.57184599	      0.84995018	      0.93654642	      0.44911413	     32.39911108	     -5.48590606	     -9.66074817	     47.44916444	     47.44916444	      2.38077041	    -16.82014194	      2.52622913	      3.61226964	     -1.73492062	    -10.50998784	     12.24447061	     12.24447061	     14.34211691	     -2.89004103	     -3.28177491	     -8.89127416	      5.22766899	      2.14682965	    -12.69690756	    -11.15952340	     -3.40414194	     23.13503501	     46.45490873	      0.00000000	      0.00000000	     23.23966278	    -14.31182597	     -6.09818918	     57.36330254	     46.61219049	      0.00000000	      0.00000000
     28.76485714	     -2.81219635	     -3.20468886	      0.43625022	      0.84920592	      0.93567846	      0.44954456	     32.09101878	     -5.23128968	    -10.01600934	     43.63581389	     43.63581389	      2.75679047	    -16.31995518	      2.75654642	      3.01637703	     -1.67492589	    -10.65831459	     11.78672414	     11.78672414	     14.61272958	     -2.67013164	     -3.51179089	     -8.87889080	      5.19449364	      2.14089941	    -13.85944494	    -11.16758312	     -3.48729647	     22.88150289	     46.46465192	      0.00000000	      0.00000000	     23.96517157	    -14.50101981	     -6.27766518	     58.32446724	     46.65011743	      0.00000000	      0.00000000
